<mxfile host="65bd71144e">
    <diagram name="Wireframe v2" id="r7uDyZLmqzJ9mDtR7u9U">
        <mxGraphModel dx="966" dy="612" grid="0" gridSize="10" guides="1" tooltips="1" connect="1" arrows="1" fold="1" page="1" pageScale="1" pageWidth="850" pageHeight="1100" math="0" shadow="0">
            <root>
                <mxCell id="ha2wvmV_hbKuJ8FSJabT-0"/>
                <mxCell id="ha2wvmV_hbKuJ8FSJabT-1" parent="ha2wvmV_hbKuJ8FSJabT-0"/>
                <mxCell id="ha2wvmV_hbKuJ8FSJabT-2" value="&lt;font color=&quot;#000000&quot; style=&quot;font-size: 17px;&quot;&gt;&lt;u style=&quot;font-size: 17px;&quot;&gt;LEGEND&lt;/u&gt;&lt;/font&gt;" style="rounded=1;whiteSpace=wrap;html=1;fillColor=#FFFFFF;strokeColor=#82b366;labelBackgroundColor=none;align=left;verticalAlign=middle;fontStyle=1;fontSize=17;" parent="ha2wvmV_hbKuJ8FSJabT-1" vertex="1">
                    <mxGeometry x="40" y="20" width="240" height="80" as="geometry"/>
                </mxCell>
                <mxCell id="ha2wvmV_hbKuJ8FSJabT-3" value="" style="rounded=1;whiteSpace=wrap;html=1;" parent="ha2wvmV_hbKuJ8FSJabT-1" vertex="1">
                    <mxGeometry x="40" y="120" width="360" height="573" as="geometry"/>
                </mxCell>
                <mxCell id="ha2wvmV_hbKuJ8FSJabT-4" value="-&lt;font style=&quot;font-size: 34px&quot; color=&quot;#2a2a2a&quot;&gt;124.54&lt;/font&gt;" style="rounded=1;whiteSpace=wrap;html=1;fillColor=#d5e8d4;strokeColor=#82b366;align=right;" parent="ha2wvmV_hbKuJ8FSJabT-1" vertex="1">
                    <mxGeometry x="60" y="180" width="310" height="60" as="geometry"/>
                </mxCell>
                <mxCell id="ha2wvmV_hbKuJ8FSJabT-5" value="" style="rounded=1;whiteSpace=wrap;html=1;" parent="ha2wvmV_hbKuJ8FSJabT-1" vertex="1">
                    <mxGeometry x="70" y="300" width="60" height="60" as="geometry"/>
                </mxCell>
                <mxCell id="ha2wvmV_hbKuJ8FSJabT-6" value="" style="rounded=1;whiteSpace=wrap;html=1;" parent="ha2wvmV_hbKuJ8FSJabT-1" vertex="1">
                    <mxGeometry x="140" y="300" width="60" height="60" as="geometry"/>
                </mxCell>
                <mxCell id="ha2wvmV_hbKuJ8FSJabT-7" value="" style="rounded=1;whiteSpace=wrap;html=1;" parent="ha2wvmV_hbKuJ8FSJabT-1" vertex="1">
                    <mxGeometry x="210" y="300" width="60" height="60" as="geometry"/>
                </mxCell>
                <mxCell id="ha2wvmV_hbKuJ8FSJabT-8" value="" style="rounded=1;whiteSpace=wrap;html=1;" parent="ha2wvmV_hbKuJ8FSJabT-1" vertex="1">
                    <mxGeometry x="70" y="370" width="60" height="60" as="geometry"/>
                </mxCell>
                <mxCell id="ha2wvmV_hbKuJ8FSJabT-9" value="" style="rounded=1;whiteSpace=wrap;html=1;" parent="ha2wvmV_hbKuJ8FSJabT-1" vertex="1">
                    <mxGeometry x="140" y="370" width="60" height="60" as="geometry"/>
                </mxCell>
                <mxCell id="ha2wvmV_hbKuJ8FSJabT-10" value="" style="rounded=1;whiteSpace=wrap;html=1;" parent="ha2wvmV_hbKuJ8FSJabT-1" vertex="1">
                    <mxGeometry x="210" y="370" width="60" height="60" as="geometry"/>
                </mxCell>
                <mxCell id="ha2wvmV_hbKuJ8FSJabT-11" value="" style="rounded=1;whiteSpace=wrap;html=1;fillColor=#d5e8d4;strokeColor=#82b366;" parent="ha2wvmV_hbKuJ8FSJabT-1" vertex="1">
                    <mxGeometry x="70" y="440" width="60" height="60" as="geometry"/>
                </mxCell>
                <mxCell id="ha2wvmV_hbKuJ8FSJabT-12" value="" style="rounded=1;whiteSpace=wrap;html=1;fillColor=#d5e8d4;strokeColor=#82b366;" parent="ha2wvmV_hbKuJ8FSJabT-1" vertex="1">
                    <mxGeometry x="140" y="440" width="60" height="60" as="geometry"/>
                </mxCell>
                <mxCell id="ha2wvmV_hbKuJ8FSJabT-13" value="" style="rounded=1;whiteSpace=wrap;html=1;" parent="ha2wvmV_hbKuJ8FSJabT-1" vertex="1">
                    <mxGeometry x="210" y="440" width="60" height="60" as="geometry"/>
                </mxCell>
                <mxCell id="ha2wvmV_hbKuJ8FSJabT-14" value="" style="rounded=1;whiteSpace=wrap;html=1;" parent="ha2wvmV_hbKuJ8FSJabT-1" vertex="1">
                    <mxGeometry x="70" y="588" width="300" height="60" as="geometry"/>
                </mxCell>
                <mxCell id="ha2wvmV_hbKuJ8FSJabT-15" value="" style="rounded=1;whiteSpace=wrap;html=1;fillColor=#d5e8d4;strokeColor=#82b366;" parent="ha2wvmV_hbKuJ8FSJabT-1" vertex="1">
                    <mxGeometry x="310" y="300" width="60" height="60" as="geometry"/>
                </mxCell>
                <mxCell id="ha2wvmV_hbKuJ8FSJabT-16" value="+" style="text;html=1;strokeColor=none;fillColor=none;align=center;verticalAlign=middle;whiteSpace=wrap;rounded=0;fontSize=34;fontColor=#333333;" parent="ha2wvmV_hbKuJ8FSJabT-1" vertex="1">
                    <mxGeometry x="310" y="315" width="60" height="30" as="geometry"/>
                </mxCell>
                <mxCell id="ha2wvmV_hbKuJ8FSJabT-17" value="7" style="text;html=1;strokeColor=none;fillColor=none;align=center;verticalAlign=middle;whiteSpace=wrap;rounded=0;fontSize=34;" parent="ha2wvmV_hbKuJ8FSJabT-1" vertex="1">
                    <mxGeometry x="70" y="315" width="60" height="30" as="geometry"/>
                </mxCell>
                <mxCell id="ha2wvmV_hbKuJ8FSJabT-18" value="8" style="text;html=1;strokeColor=none;fillColor=none;align=center;verticalAlign=middle;whiteSpace=wrap;rounded=0;fontSize=34;" parent="ha2wvmV_hbKuJ8FSJabT-1" vertex="1">
                    <mxGeometry x="140" y="315" width="60" height="30" as="geometry"/>
                </mxCell>
                <mxCell id="ha2wvmV_hbKuJ8FSJabT-19" value="9" style="text;html=1;strokeColor=none;fillColor=none;align=center;verticalAlign=middle;whiteSpace=wrap;rounded=0;fontSize=34;" parent="ha2wvmV_hbKuJ8FSJabT-1" vertex="1">
                    <mxGeometry x="210" y="315" width="60" height="30" as="geometry"/>
                </mxCell>
                <mxCell id="ha2wvmV_hbKuJ8FSJabT-20" value="4" style="text;html=1;strokeColor=none;fillColor=none;align=center;verticalAlign=middle;whiteSpace=wrap;rounded=0;fontSize=34;" parent="ha2wvmV_hbKuJ8FSJabT-1" vertex="1">
                    <mxGeometry x="70" y="385" width="60" height="30" as="geometry"/>
                </mxCell>
                <mxCell id="ha2wvmV_hbKuJ8FSJabT-21" value="5" style="text;html=1;strokeColor=none;fillColor=none;align=center;verticalAlign=middle;whiteSpace=wrap;rounded=0;fontSize=34;" parent="ha2wvmV_hbKuJ8FSJabT-1" vertex="1">
                    <mxGeometry x="140" y="385" width="60" height="30" as="geometry"/>
                </mxCell>
                <mxCell id="ha2wvmV_hbKuJ8FSJabT-22" value="6" style="text;html=1;strokeColor=none;fillColor=none;align=center;verticalAlign=middle;whiteSpace=wrap;rounded=0;fontSize=34;" parent="ha2wvmV_hbKuJ8FSJabT-1" vertex="1">
                    <mxGeometry x="210" y="385" width="60" height="30" as="geometry"/>
                </mxCell>
                <mxCell id="ha2wvmV_hbKuJ8FSJabT-23" value="1" style="text;html=1;strokeColor=#82b366;fillColor=#d5e8d4;align=center;verticalAlign=middle;whiteSpace=wrap;rounded=0;fontSize=34;fontColor=#333333;" parent="ha2wvmV_hbKuJ8FSJabT-1" vertex="1">
                    <mxGeometry x="70" y="455" width="60" height="30" as="geometry"/>
                </mxCell>
                <mxCell id="ha2wvmV_hbKuJ8FSJabT-24" value="2" style="text;html=1;strokeColor=#82b366;fillColor=#d5e8d4;align=center;verticalAlign=middle;whiteSpace=wrap;rounded=0;fontSize=34;fontColor=#333333;" parent="ha2wvmV_hbKuJ8FSJabT-1" vertex="1">
                    <mxGeometry x="140" y="455" width="60" height="30" as="geometry"/>
                </mxCell>
                <mxCell id="ha2wvmV_hbKuJ8FSJabT-25" value="3" style="text;html=1;strokeColor=none;fillColor=none;align=center;verticalAlign=middle;whiteSpace=wrap;rounded=0;fontSize=34;" parent="ha2wvmV_hbKuJ8FSJabT-1" vertex="1">
                    <mxGeometry x="210" y="455" width="60" height="30" as="geometry"/>
                </mxCell>
                <mxCell id="ha2wvmV_hbKuJ8FSJabT-26" value="" style="rounded=1;whiteSpace=wrap;html=1;" parent="ha2wvmV_hbKuJ8FSJabT-1" vertex="1">
                    <mxGeometry x="140" y="510" width="60" height="60" as="geometry"/>
                </mxCell>
                <mxCell id="ha2wvmV_hbKuJ8FSJabT-27" value="0" style="text;html=1;strokeColor=none;fillColor=none;align=center;verticalAlign=middle;whiteSpace=wrap;rounded=0;fontSize=34;" parent="ha2wvmV_hbKuJ8FSJabT-1" vertex="1">
                    <mxGeometry x="140" y="525" width="60" height="30" as="geometry"/>
                </mxCell>
                <mxCell id="ha2wvmV_hbKuJ8FSJabT-28" value="=" style="text;html=1;strokeColor=none;fillColor=none;align=center;verticalAlign=middle;whiteSpace=wrap;rounded=0;fontSize=34;" parent="ha2wvmV_hbKuJ8FSJabT-1" vertex="1">
                    <mxGeometry x="190" y="603" width="60" height="30" as="geometry"/>
                </mxCell>
                <mxCell id="ha2wvmV_hbKuJ8FSJabT-29" style="edgeStyle=orthogonalEdgeStyle;html=1;exitX=0;exitY=0.5;exitDx=0;exitDy=0;entryX=0.5;entryY=0;entryDx=0;entryDy=0;fontSize=15;dashed=1;dashPattern=1 1;" parent="ha2wvmV_hbKuJ8FSJabT-1" source="ha2wvmV_hbKuJ8FSJabT-32" target="ha2wvmV_hbKuJ8FSJabT-5" edge="1">
                    <mxGeometry relative="1" as="geometry">
                        <Array as="points">
                            <mxPoint x="415" y="270"/>
                            <mxPoint x="100" y="270"/>
                        </Array>
                    </mxGeometry>
                </mxCell>
                <mxCell id="ha2wvmV_hbKuJ8FSJabT-30" style="edgeStyle=orthogonalEdgeStyle;html=1;exitX=0;exitY=0.5;exitDx=0;exitDy=0;entryX=0.5;entryY=0;entryDx=0;entryDy=0;fontSize=15;dashed=1;dashPattern=1 1;" parent="ha2wvmV_hbKuJ8FSJabT-1" source="ha2wvmV_hbKuJ8FSJabT-32" target="ha2wvmV_hbKuJ8FSJabT-6" edge="1">
                    <mxGeometry relative="1" as="geometry">
                        <Array as="points">
                            <mxPoint x="415" y="270"/>
                            <mxPoint x="170" y="270"/>
                        </Array>
                    </mxGeometry>
                </mxCell>
                <mxCell id="ha2wvmV_hbKuJ8FSJabT-31" style="edgeStyle=orthogonalEdgeStyle;html=1;exitX=0;exitY=0.5;exitDx=0;exitDy=0;entryX=0.5;entryY=0;entryDx=0;entryDy=0;fontSize=15;dashed=1;dashPattern=1 1;" parent="ha2wvmV_hbKuJ8FSJabT-1" source="ha2wvmV_hbKuJ8FSJabT-32" target="ha2wvmV_hbKuJ8FSJabT-7" edge="1">
                    <mxGeometry relative="1" as="geometry">
                        <Array as="points">
                            <mxPoint x="415" y="270"/>
                            <mxPoint x="240" y="270"/>
                        </Array>
                    </mxGeometry>
                </mxCell>
                <mxCell id="ha2wvmV_hbKuJ8FSJabT-32" value="digits" style="text;html=1;strokeColor=none;fillColor=none;align=left;verticalAlign=middle;whiteSpace=wrap;rounded=0;fontSize=15;" parent="ha2wvmV_hbKuJ8FSJabT-1" vertex="1">
                    <mxGeometry x="415" y="260" width="50" height="20" as="geometry"/>
                </mxCell>
                <mxCell id="ha2wvmV_hbKuJ8FSJabT-33" value="" style="rounded=1;whiteSpace=wrap;html=1;" parent="ha2wvmV_hbKuJ8FSJabT-1" vertex="1">
                    <mxGeometry x="310" y="370" width="60" height="60" as="geometry"/>
                </mxCell>
                <mxCell id="ha2wvmV_hbKuJ8FSJabT-34" value="-" style="text;html=1;align=center;verticalAlign=middle;whiteSpace=wrap;rounded=0;fontSize=34;" parent="ha2wvmV_hbKuJ8FSJabT-1" vertex="1">
                    <mxGeometry x="310" y="385" width="60" height="30" as="geometry"/>
                </mxCell>
                <mxCell id="ha2wvmV_hbKuJ8FSJabT-35" value="" style="rounded=1;whiteSpace=wrap;html=1;" parent="ha2wvmV_hbKuJ8FSJabT-1" vertex="1">
                    <mxGeometry x="310" y="440" width="60" height="60" as="geometry"/>
                </mxCell>
                <mxCell id="ha2wvmV_hbKuJ8FSJabT-36" value="x" style="text;html=1;align=center;verticalAlign=middle;whiteSpace=wrap;rounded=0;fontSize=34;" parent="ha2wvmV_hbKuJ8FSJabT-1" vertex="1">
                    <mxGeometry x="310" y="455" width="60" height="30" as="geometry"/>
                </mxCell>
                <mxCell id="ha2wvmV_hbKuJ8FSJabT-37" value="" style="rounded=1;whiteSpace=wrap;html=1;" parent="ha2wvmV_hbKuJ8FSJabT-1" vertex="1">
                    <mxGeometry x="310" y="510" width="60" height="60" as="geometry"/>
                </mxCell>
                <mxCell id="ha2wvmV_hbKuJ8FSJabT-38" value="/" style="text;html=1;align=center;verticalAlign=middle;whiteSpace=wrap;rounded=0;fontSize=34;" parent="ha2wvmV_hbKuJ8FSJabT-1" vertex="1">
                    <mxGeometry x="310" y="525" width="60" height="30" as="geometry"/>
                </mxCell>
                <mxCell id="ha2wvmV_hbKuJ8FSJabT-39" style="edgeStyle=orthogonalEdgeStyle;html=1;exitX=0;exitY=0.5;exitDx=0;exitDy=0;entryX=1;entryY=0.5;entryDx=0;entryDy=0;fontSize=15;dashed=1;dashPattern=1 1;" parent="ha2wvmV_hbKuJ8FSJabT-1" source="ha2wvmV_hbKuJ8FSJabT-43" target="ha2wvmV_hbKuJ8FSJabT-16" edge="1">
                    <mxGeometry relative="1" as="geometry">
                        <Array as="points">
                            <mxPoint x="410" y="432"/>
                            <mxPoint x="410" y="330"/>
                        </Array>
                    </mxGeometry>
                </mxCell>
                <mxCell id="ha2wvmV_hbKuJ8FSJabT-40" style="edgeStyle=orthogonalEdgeStyle;html=1;exitX=0;exitY=0.5;exitDx=0;exitDy=0;entryX=1;entryY=0.75;entryDx=0;entryDy=0;fontSize=15;dashed=1;dashPattern=1 1;" parent="ha2wvmV_hbKuJ8FSJabT-1" source="ha2wvmV_hbKuJ8FSJabT-43" target="ha2wvmV_hbKuJ8FSJabT-34" edge="1">
                    <mxGeometry relative="1" as="geometry">
                        <Array as="points">
                            <mxPoint x="410" y="432"/>
                            <mxPoint x="410" y="408"/>
                        </Array>
                    </mxGeometry>
                </mxCell>
                <mxCell id="ha2wvmV_hbKuJ8FSJabT-41" style="edgeStyle=orthogonalEdgeStyle;html=1;exitX=0;exitY=0.5;exitDx=0;exitDy=0;entryX=1;entryY=0.5;entryDx=0;entryDy=0;fontSize=15;dashed=1;dashPattern=1 1;" parent="ha2wvmV_hbKuJ8FSJabT-1" source="ha2wvmV_hbKuJ8FSJabT-43" target="ha2wvmV_hbKuJ8FSJabT-36" edge="1">
                    <mxGeometry relative="1" as="geometry">
                        <Array as="points">
                            <mxPoint x="410" y="432"/>
                            <mxPoint x="410" y="470"/>
                        </Array>
                    </mxGeometry>
                </mxCell>
                <mxCell id="ha2wvmV_hbKuJ8FSJabT-42" style="edgeStyle=orthogonalEdgeStyle;html=1;exitX=0;exitY=0.5;exitDx=0;exitDy=0;entryX=1;entryY=0.5;entryDx=0;entryDy=0;fontSize=15;dashed=1;dashPattern=1 1;" parent="ha2wvmV_hbKuJ8FSJabT-1" source="ha2wvmV_hbKuJ8FSJabT-43" target="ha2wvmV_hbKuJ8FSJabT-38" edge="1">
                    <mxGeometry relative="1" as="geometry">
                        <Array as="points">
                            <mxPoint x="410" y="432"/>
                            <mxPoint x="410" y="540"/>
                        </Array>
                    </mxGeometry>
                </mxCell>
                <mxCell id="ha2wvmV_hbKuJ8FSJabT-43" value="operators" style="text;html=1;strokeColor=none;fillColor=none;align=left;verticalAlign=middle;whiteSpace=wrap;rounded=0;fontSize=15;" parent="ha2wvmV_hbKuJ8FSJabT-1" vertex="1">
                    <mxGeometry x="415" y="417" width="70" height="30" as="geometry"/>
                </mxCell>
                <mxCell id="ha2wvmV_hbKuJ8FSJabT-44" value="display" style="text;html=1;strokeColor=none;fillColor=none;align=left;verticalAlign=middle;whiteSpace=wrap;rounded=0;fontSize=15;" parent="ha2wvmV_hbKuJ8FSJabT-1" vertex="1">
                    <mxGeometry x="415" y="195" width="80" height="30" as="geometry"/>
                </mxCell>
                <mxCell id="ha2wvmV_hbKuJ8FSJabT-45" value="MVP" style="rounded=1;whiteSpace=wrap;html=1;fillColor=#d5e8d4;strokeColor=#82b366;fontColor=#333333;fontStyle=1;fontSize=19;" parent="ha2wvmV_hbKuJ8FSJabT-1" vertex="1">
                    <mxGeometry x="133.5" y="30" width="60" height="60" as="geometry"/>
                </mxCell>
                <mxCell id="ha2wvmV_hbKuJ8FSJabT-46" value="Beyond MVP" style="rounded=1;whiteSpace=wrap;html=1;fontSize=15;" parent="ha2wvmV_hbKuJ8FSJabT-1" vertex="1">
                    <mxGeometry x="206.5" y="30" width="60" height="60" as="geometry"/>
                </mxCell>
                <mxCell id="ha2wvmV_hbKuJ8FSJabT-47" style="edgeStyle=orthogonalEdgeStyle;html=1;entryX=1;entryY=0.5;entryDx=0;entryDy=0;fontSize=15;dashed=1;dashPattern=1 1;exitX=0;exitY=0.5;exitDx=0;exitDy=0;" parent="ha2wvmV_hbKuJ8FSJabT-1" source="ha2wvmV_hbKuJ8FSJabT-44" target="ha2wvmV_hbKuJ8FSJabT-4" edge="1">
                    <mxGeometry relative="1" as="geometry">
                        <mxPoint x="450" y="310" as="sourcePoint"/>
                        <mxPoint x="380" y="340" as="targetPoint"/>
                        <Array as="points">
                            <mxPoint x="415" y="210"/>
                            <mxPoint x="415" y="210"/>
                        </Array>
                    </mxGeometry>
                </mxCell>
                <mxCell id="laqjordpG8aSChoLsDvv-0" value="" style="rounded=1;whiteSpace=wrap;html=1;" parent="ha2wvmV_hbKuJ8FSJabT-1" vertex="1">
                    <mxGeometry x="210" y="510" width="60" height="60" as="geometry"/>
                </mxCell>
                <mxCell id="laqjordpG8aSChoLsDvv-2" value="" style="rounded=1;whiteSpace=wrap;html=1;" parent="ha2wvmV_hbKuJ8FSJabT-1" vertex="1">
                    <mxGeometry x="67" y="510" width="60" height="60" as="geometry"/>
                </mxCell>
                <mxCell id="laqjordpG8aSChoLsDvv-3" value="." style="text;html=1;strokeColor=none;fillColor=none;align=center;verticalAlign=middle;whiteSpace=wrap;rounded=0;fontSize=34;" parent="ha2wvmV_hbKuJ8FSJabT-1" vertex="1">
                    <mxGeometry x="210" y="525" width="60" height="30" as="geometry"/>
                </mxCell>
                <mxCell id="laqjordpG8aSChoLsDvv-1" value="+/-" style="text;html=1;strokeColor=none;fillColor=none;align=center;verticalAlign=middle;whiteSpace=wrap;rounded=0;fontSize=34;" parent="ha2wvmV_hbKuJ8FSJabT-1" vertex="1">
                    <mxGeometry x="67" y="525" width="60" height="30" as="geometry"/>
                </mxCell>
            </root>
        </mxGraphModel>
    </diagram>
    <diagram id="f8SK00lh47Q5QI1V_VYS" name="Components v2">
        <mxGraphModel dx="1136" dy="720" grid="0" gridSize="10" guides="1" tooltips="1" connect="1" arrows="1" fold="1" page="1" pageScale="1" pageWidth="827" pageHeight="1169" math="0" shadow="0">
            <root>
                <mxCell id="0"/>
                <mxCell id="1" parent="0"/>
                <mxCell id="gVbqMrFXqsJYeJvw-87F-7" value="" style="whiteSpace=wrap;html=1;labelBackgroundColor=none;fontSize=34;fontColor=#2A2A2A;strokeColor=#66FF66;fillColor=none;strokeWidth=2;" parent="1" vertex="1">
                    <mxGeometry x="38" y="72" width="400" height="620" as="geometry"/>
                </mxCell>
                <mxCell id="pblUdJ5J920f8MQEBBJJ-10" value="" style="whiteSpace=wrap;html=1;labelBackgroundColor=none;fontSize=34;fontColor=#2A2A2A;strokeColor=#66FF66;fillColor=none;strokeWidth=2;" vertex="1" parent="1">
                    <mxGeometry x="16" y="41" width="446" height="669" as="geometry"/>
                </mxCell>
                <mxCell id="6Knr0V9myMYyjWnpTJcs-50" value="" style="rounded=1;whiteSpace=wrap;html=1;" parent="1" vertex="1">
                    <mxGeometry x="58" y="92" width="360" height="587" as="geometry"/>
                </mxCell>
                <mxCell id="xDLZ8GKqZrTMSgAcqFz9-49" value="" style="rounded=1;whiteSpace=wrap;html=1;" parent="1" vertex="1">
                    <mxGeometry x="81" y="600.5" width="300" height="60" as="geometry"/>
                </mxCell>
                <mxCell id="gVbqMrFXqsJYeJvw-87F-3" value="" style="whiteSpace=wrap;html=1;labelBackgroundColor=none;fontSize=34;fontColor=#2A2A2A;strokeColor=#66FF66;fillColor=none;strokeWidth=2;" parent="1" vertex="1">
                    <mxGeometry x="68" y="244" width="240" height="323" as="geometry"/>
                </mxCell>
                <mxCell id="6Knr0V9myMYyjWnpTJcs-51" value="&lt;font style=&quot;font-size: 34px&quot; color=&quot;#2a2a2a&quot;&gt;-123.32&lt;/font&gt;" style="rounded=1;whiteSpace=wrap;html=1;fillColor=#FFFFFF;strokeColor=#82b366;align=right;" parent="1" vertex="1">
                    <mxGeometry x="88" y="143" width="300" height="60" as="geometry"/>
                </mxCell>
                <mxCell id="6Knr0V9myMYyjWnpTJcs-52" value="" style="rounded=1;whiteSpace=wrap;html=1;" parent="1" vertex="1">
                    <mxGeometry x="88" y="287" width="60" height="60" as="geometry"/>
                </mxCell>
                <mxCell id="6Knr0V9myMYyjWnpTJcs-53" value="" style="rounded=1;whiteSpace=wrap;html=1;" parent="1" vertex="1">
                    <mxGeometry x="158" y="287" width="60" height="60" as="geometry"/>
                </mxCell>
                <mxCell id="6Knr0V9myMYyjWnpTJcs-54" value="" style="rounded=1;whiteSpace=wrap;html=1;" parent="1" vertex="1">
                    <mxGeometry x="228" y="287" width="60" height="60" as="geometry"/>
                </mxCell>
                <mxCell id="6Knr0V9myMYyjWnpTJcs-55" value="" style="rounded=1;whiteSpace=wrap;html=1;" parent="1" vertex="1">
                    <mxGeometry x="88" y="357" width="60" height="60" as="geometry"/>
                </mxCell>
                <mxCell id="6Knr0V9myMYyjWnpTJcs-56" value="" style="rounded=1;whiteSpace=wrap;html=1;" parent="1" vertex="1">
                    <mxGeometry x="158" y="357" width="60" height="60" as="geometry"/>
                </mxCell>
                <mxCell id="6Knr0V9myMYyjWnpTJcs-57" value="" style="rounded=1;whiteSpace=wrap;html=1;" parent="1" vertex="1">
                    <mxGeometry x="228" y="357" width="60" height="60" as="geometry"/>
                </mxCell>
                <mxCell id="6Knr0V9myMYyjWnpTJcs-58" value="" style="rounded=1;whiteSpace=wrap;html=1;fillColor=#2A2A2A;strokeColor=#FFFFFF;" parent="1" vertex="1">
                    <mxGeometry x="88" y="427" width="60" height="60" as="geometry"/>
                </mxCell>
                <mxCell id="6Knr0V9myMYyjWnpTJcs-59" value="" style="rounded=1;whiteSpace=wrap;html=1;fillColor=#2A2A2A;strokeColor=#FFFFFF;" parent="1" vertex="1">
                    <mxGeometry x="158" y="427" width="60" height="60" as="geometry"/>
                </mxCell>
                <mxCell id="6Knr0V9myMYyjWnpTJcs-60" value="" style="rounded=1;whiteSpace=wrap;html=1;" parent="1" vertex="1">
                    <mxGeometry x="228" y="427" width="60" height="60" as="geometry"/>
                </mxCell>
                <mxCell id="6Knr0V9myMYyjWnpTJcs-62" value="" style="rounded=1;whiteSpace=wrap;html=1;fillColor=#2A2A2A;strokeColor=#FFFFFF;" parent="1" vertex="1">
                    <mxGeometry x="328" y="287" width="60" height="60" as="geometry"/>
                </mxCell>
                <mxCell id="6Knr0V9myMYyjWnpTJcs-63" value="+" style="text;html=1;strokeColor=none;fillColor=none;align=center;verticalAlign=middle;whiteSpace=wrap;rounded=0;fontSize=34;fontColor=#FFFFFF;" parent="1" vertex="1">
                    <mxGeometry x="328" y="302" width="60" height="30" as="geometry"/>
                </mxCell>
                <mxCell id="6Knr0V9myMYyjWnpTJcs-64" value="7" style="text;html=1;strokeColor=none;fillColor=none;align=center;verticalAlign=middle;whiteSpace=wrap;rounded=0;fontSize=34;" parent="1" vertex="1">
                    <mxGeometry x="88" y="302" width="60" height="30" as="geometry"/>
                </mxCell>
                <mxCell id="6Knr0V9myMYyjWnpTJcs-65" value="8" style="text;html=1;strokeColor=none;fillColor=none;align=center;verticalAlign=middle;whiteSpace=wrap;rounded=0;fontSize=34;" parent="1" vertex="1">
                    <mxGeometry x="158" y="302" width="60" height="30" as="geometry"/>
                </mxCell>
                <mxCell id="6Knr0V9myMYyjWnpTJcs-66" value="9" style="text;html=1;strokeColor=none;fillColor=none;align=center;verticalAlign=middle;whiteSpace=wrap;rounded=0;fontSize=34;" parent="1" vertex="1">
                    <mxGeometry x="228" y="302" width="60" height="30" as="geometry"/>
                </mxCell>
                <mxCell id="6Knr0V9myMYyjWnpTJcs-67" value="4" style="text;html=1;strokeColor=none;fillColor=none;align=center;verticalAlign=middle;whiteSpace=wrap;rounded=0;fontSize=34;" parent="1" vertex="1">
                    <mxGeometry x="88" y="372" width="60" height="30" as="geometry"/>
                </mxCell>
                <mxCell id="6Knr0V9myMYyjWnpTJcs-68" value="5" style="text;html=1;strokeColor=none;fillColor=none;align=center;verticalAlign=middle;whiteSpace=wrap;rounded=0;fontSize=34;" parent="1" vertex="1">
                    <mxGeometry x="158" y="372" width="60" height="30" as="geometry"/>
                </mxCell>
                <mxCell id="6Knr0V9myMYyjWnpTJcs-69" value="6" style="text;html=1;strokeColor=none;fillColor=none;align=center;verticalAlign=middle;whiteSpace=wrap;rounded=0;fontSize=34;" parent="1" vertex="1">
                    <mxGeometry x="228" y="372" width="60" height="30" as="geometry"/>
                </mxCell>
                <mxCell id="6Knr0V9myMYyjWnpTJcs-70" value="1" style="text;html=1;strokeColor=none;fillColor=#2A2A2A;align=center;verticalAlign=middle;whiteSpace=wrap;rounded=0;fontSize=34;fontColor=#FFFFFF;" parent="1" vertex="1">
                    <mxGeometry x="98" y="442" width="40" height="30" as="geometry"/>
                </mxCell>
                <mxCell id="6Knr0V9myMYyjWnpTJcs-71" value="2" style="text;html=1;strokeColor=none;fillColor=#2A2A2A;align=center;verticalAlign=middle;whiteSpace=wrap;rounded=0;fontSize=34;fontColor=#FFFFFF;" parent="1" vertex="1">
                    <mxGeometry x="168" y="442" width="40" height="30" as="geometry"/>
                </mxCell>
                <mxCell id="6Knr0V9myMYyjWnpTJcs-72" value="3" style="text;html=1;strokeColor=none;fillColor=none;align=center;verticalAlign=middle;whiteSpace=wrap;rounded=0;fontSize=34;fontColor=#FFFFFF;" parent="1" vertex="1">
                    <mxGeometry x="228" y="442" width="60" height="30" as="geometry"/>
                </mxCell>
                <mxCell id="6Knr0V9myMYyjWnpTJcs-80" value="" style="rounded=1;whiteSpace=wrap;html=1;" parent="1" vertex="1">
                    <mxGeometry x="328" y="357" width="60" height="60" as="geometry"/>
                </mxCell>
                <mxCell id="6Knr0V9myMYyjWnpTJcs-81" value="-" style="text;html=1;align=center;verticalAlign=middle;whiteSpace=wrap;rounded=0;fontSize=48;" parent="1" vertex="1">
                    <mxGeometry x="328" y="372" width="60" height="30" as="geometry"/>
                </mxCell>
                <mxCell id="6Knr0V9myMYyjWnpTJcs-82" value="" style="rounded=1;whiteSpace=wrap;html=1;" parent="1" vertex="1">
                    <mxGeometry x="328" y="427" width="60" height="60" as="geometry"/>
                </mxCell>
                <mxCell id="6Knr0V9myMYyjWnpTJcs-83" value="x" style="text;html=1;align=center;verticalAlign=middle;whiteSpace=wrap;rounded=0;fontSize=34;" parent="1" vertex="1">
                    <mxGeometry x="328" y="442" width="60" height="30" as="geometry"/>
                </mxCell>
                <mxCell id="6Knr0V9myMYyjWnpTJcs-84" value="" style="rounded=1;whiteSpace=wrap;html=1;" parent="1" vertex="1">
                    <mxGeometry x="328" y="497" width="60" height="60" as="geometry"/>
                </mxCell>
                <mxCell id="6Knr0V9myMYyjWnpTJcs-85" value="/" style="text;html=1;align=center;verticalAlign=middle;whiteSpace=wrap;rounded=0;fontSize=34;" parent="1" vertex="1">
                    <mxGeometry x="328" y="512" width="60" height="30" as="geometry"/>
                </mxCell>
                <mxCell id="gVbqMrFXqsJYeJvw-87F-1" value="" style="whiteSpace=wrap;html=1;labelBackgroundColor=none;fontSize=34;fontColor=#2A2A2A;strokeColor=#66FF66;fillColor=none;strokeWidth=2;" parent="1" vertex="1">
                    <mxGeometry x="83" y="282" width="70" height="70" as="geometry"/>
                </mxCell>
                <mxCell id="gVbqMrFXqsJYeJvw-87F-2" value="" style="whiteSpace=wrap;html=1;labelBackgroundColor=none;fontSize=34;fontColor=#2A2A2A;strokeColor=#66FF66;fillColor=none;strokeWidth=2;" parent="1" vertex="1">
                    <mxGeometry x="323" y="282" width="70" height="70" as="geometry"/>
                </mxCell>
                <mxCell id="gVbqMrFXqsJYeJvw-87F-4" value="" style="whiteSpace=wrap;html=1;labelBackgroundColor=none;fontSize=34;fontColor=#2A2A2A;strokeColor=#66FF66;fillColor=none;strokeWidth=2;" parent="1" vertex="1">
                    <mxGeometry x="318" y="242" width="90" height="325" as="geometry"/>
                </mxCell>
                <mxCell id="gVbqMrFXqsJYeJvw-87F-5" value="" style="whiteSpace=wrap;html=1;labelBackgroundColor=none;fontSize=34;fontColor=#2A2A2A;strokeColor=#66FF66;fillColor=none;strokeWidth=2;" parent="1" vertex="1">
                    <mxGeometry x="68" y="133" width="330" height="80" as="geometry"/>
                </mxCell>
                <mxCell id="xDLZ8GKqZrTMSgAcqFz9-48" value="=" style="text;html=1;strokeColor=none;fillColor=none;align=center;verticalAlign=middle;whiteSpace=wrap;rounded=0;fontSize=34;" parent="1" vertex="1">
                    <mxGeometry x="201" y="615.5" width="60" height="30" as="geometry"/>
                </mxCell>
                <mxCell id="xDLZ8GKqZrTMSgAcqFz9-50" value="" style="rounded=1;whiteSpace=wrap;html=1;" parent="1" vertex="1">
                    <mxGeometry x="158" y="497" width="60" height="60" as="geometry"/>
                </mxCell>
                <mxCell id="xDLZ8GKqZrTMSgAcqFz9-51" value="0" style="text;html=1;strokeColor=none;fillColor=none;align=center;verticalAlign=middle;whiteSpace=wrap;rounded=0;fontSize=34;" parent="1" vertex="1">
                    <mxGeometry x="158" y="512" width="60" height="30" as="geometry"/>
                </mxCell>
                <mxCell id="xDLZ8GKqZrTMSgAcqFz9-52" value="" style="rounded=1;whiteSpace=wrap;html=1;" parent="1" vertex="1">
                    <mxGeometry x="228" y="497" width="60" height="60" as="geometry"/>
                </mxCell>
                <mxCell id="xDLZ8GKqZrTMSgAcqFz9-53" value="" style="rounded=1;whiteSpace=wrap;html=1;" parent="1" vertex="1">
                    <mxGeometry x="88" y="497" width="60" height="60" as="geometry"/>
                </mxCell>
                <mxCell id="xDLZ8GKqZrTMSgAcqFz9-54" value="." style="text;html=1;strokeColor=none;fillColor=none;align=center;verticalAlign=middle;whiteSpace=wrap;rounded=0;fontSize=34;" parent="1" vertex="1">
                    <mxGeometry x="228" y="512" width="60" height="30" as="geometry"/>
                </mxCell>
                <mxCell id="xDLZ8GKqZrTMSgAcqFz9-55" value="+/-" style="text;html=1;strokeColor=none;fillColor=none;align=center;verticalAlign=middle;whiteSpace=wrap;rounded=0;fontSize=34;" parent="1" vertex="1">
                    <mxGeometry x="85" y="512" width="60" height="30" as="geometry"/>
                </mxCell>
                <mxCell id="xDLZ8GKqZrTMSgAcqFz9-56" value="" style="whiteSpace=wrap;html=1;labelBackgroundColor=none;fontSize=34;fontColor=#2A2A2A;strokeColor=#66FF66;fillColor=none;strokeWidth=2;" parent="1" vertex="1">
                    <mxGeometry x="68" y="597" width="326" height="73.5" as="geometry"/>
                </mxCell>
                <mxCell id="pblUdJ5J920f8MQEBBJJ-1" value="Display" style="text;html=1;strokeColor=none;fillColor=none;align=left;verticalAlign=middle;whiteSpace=wrap;rounded=0;fontSize=20;fontColor=#66FF66;" vertex="1" parent="1">
                    <mxGeometry x="74" y="105" width="80" height="30" as="geometry"/>
                </mxCell>
                <mxCell id="pblUdJ5J920f8MQEBBJJ-2" value="Operator" style="text;html=1;strokeColor=none;fillColor=none;align=left;verticalAlign=middle;whiteSpace=wrap;rounded=0;fontSize=20;fontColor=#66FF66;" vertex="1" parent="1">
                    <mxGeometry x="323" y="248" width="95" height="30" as="geometry"/>
                </mxCell>
                <mxCell id="pblUdJ5J920f8MQEBBJJ-3" value="OperatorsGrid" style="text;html=1;strokeColor=none;fillColor=none;align=right;verticalAlign=middle;whiteSpace=wrap;rounded=0;fontSize=20;fontColor=#66FF66;" vertex="1" parent="1">
                    <mxGeometry x="241" y="213" width="157" height="30" as="geometry"/>
                </mxCell>
                <mxCell id="pblUdJ5J920f8MQEBBJJ-5" value="Calculate" style="text;html=1;strokeColor=none;fillColor=none;align=left;verticalAlign=middle;whiteSpace=wrap;rounded=0;fontSize=20;fontColor=#66FF66;" vertex="1" parent="1">
                    <mxGeometry x="64" y="567" width="157" height="30" as="geometry"/>
                </mxCell>
                <mxCell id="pblUdJ5J920f8MQEBBJJ-6" value="DigitsGrid" style="text;html=1;strokeColor=none;fillColor=none;align=right;verticalAlign=middle;whiteSpace=wrap;rounded=0;fontSize=20;fontColor=#66FF66;" vertex="1" parent="1">
                    <mxGeometry x="50" y="213" width="108" height="30" as="geometry"/>
                </mxCell>
                <mxCell id="pblUdJ5J920f8MQEBBJJ-7" value="Digit" style="text;html=1;strokeColor=none;fillColor=none;align=left;verticalAlign=middle;whiteSpace=wrap;rounded=0;fontSize=20;fontColor=#66FF66;" vertex="1" parent="1">
                    <mxGeometry x="81" y="250" width="87" height="30" as="geometry"/>
                </mxCell>
                <mxCell id="pblUdJ5J920f8MQEBBJJ-8" value="Calculator" style="text;html=1;strokeColor=none;fillColor=none;align=left;verticalAlign=middle;whiteSpace=wrap;rounded=0;fontSize=20;fontColor=#66FF66;" vertex="1" parent="1">
                    <mxGeometry x="36" y="42" width="80" height="30" as="geometry"/>
                </mxCell>
                <mxCell id="pblUdJ5J920f8MQEBBJJ-11" value="App" style="text;html=1;strokeColor=none;fillColor=none;align=left;verticalAlign=middle;whiteSpace=wrap;rounded=0;fontSize=20;fontColor=#66FF66;" vertex="1" parent="1">
                    <mxGeometry x="16" y="6" width="80" height="30" as="geometry"/>
                </mxCell>
            </root>
        </mxGraphModel>
    </diagram>
    <diagram id="lEDTg64GIdovqu71foDq" name="Wireframe v1">
        <mxGraphModel dx="1437" dy="714" grid="0" gridSize="10" guides="1" tooltips="1" connect="1" arrows="1" fold="1" page="1" pageScale="1" pageWidth="850" pageHeight="1100" math="0" shadow="0">
            <root>
                <mxCell id="0"/>
                <mxCell id="1" parent="0"/>
                <mxCell id="ZcKUBzm6mtghSabUe636-51" value="" style="rounded=1;whiteSpace=wrap;html=1;" vertex="1" parent="1">
                    <mxGeometry x="40" y="40" width="360" height="510" as="geometry"/>
                </mxCell>
                <mxCell id="ZcKUBzm6mtghSabUe636-52" value="" style="rounded=1;whiteSpace=wrap;html=1;fillColor=#d5e8d4;strokeColor=#82b366;" vertex="1" parent="1">
                    <mxGeometry x="60" y="100" width="310" height="60" as="geometry"/>
                </mxCell>
                <mxCell id="ZcKUBzm6mtghSabUe636-53" value="" style="rounded=1;whiteSpace=wrap;html=1;" vertex="1" parent="1">
                    <mxGeometry x="70" y="220" width="60" height="60" as="geometry"/>
                </mxCell>
                <mxCell id="ZcKUBzm6mtghSabUe636-54" value="" style="rounded=1;whiteSpace=wrap;html=1;" vertex="1" parent="1">
                    <mxGeometry x="140" y="220" width="60" height="60" as="geometry"/>
                </mxCell>
                <mxCell id="ZcKUBzm6mtghSabUe636-55" value="" style="rounded=1;whiteSpace=wrap;html=1;" vertex="1" parent="1">
                    <mxGeometry x="210" y="220" width="60" height="60" as="geometry"/>
                </mxCell>
                <mxCell id="ZcKUBzm6mtghSabUe636-56" value="" style="rounded=1;whiteSpace=wrap;html=1;" vertex="1" parent="1">
                    <mxGeometry x="70" y="290" width="60" height="60" as="geometry"/>
                </mxCell>
                <mxCell id="ZcKUBzm6mtghSabUe636-57" value="" style="rounded=1;whiteSpace=wrap;html=1;" vertex="1" parent="1">
                    <mxGeometry x="140" y="290" width="60" height="60" as="geometry"/>
                </mxCell>
                <mxCell id="ZcKUBzm6mtghSabUe636-58" value="" style="rounded=1;whiteSpace=wrap;html=1;" vertex="1" parent="1">
                    <mxGeometry x="210" y="290" width="60" height="60" as="geometry"/>
                </mxCell>
                <mxCell id="ZcKUBzm6mtghSabUe636-59" value="" style="rounded=1;whiteSpace=wrap;html=1;fillColor=#d5e8d4;strokeColor=#82b366;" vertex="1" parent="1">
                    <mxGeometry x="70" y="360" width="60" height="60" as="geometry"/>
                </mxCell>
                <mxCell id="ZcKUBzm6mtghSabUe636-60" value="" style="rounded=1;whiteSpace=wrap;html=1;fillColor=#d5e8d4;strokeColor=#82b366;" vertex="1" parent="1">
                    <mxGeometry x="140" y="360" width="60" height="60" as="geometry"/>
                </mxCell>
                <mxCell id="ZcKUBzm6mtghSabUe636-61" value="" style="rounded=1;whiteSpace=wrap;html=1;" vertex="1" parent="1">
                    <mxGeometry x="210" y="360" width="60" height="60" as="geometry"/>
                </mxCell>
                <mxCell id="ZcKUBzm6mtghSabUe636-62" value="" style="rounded=1;whiteSpace=wrap;html=1;" vertex="1" parent="1">
                    <mxGeometry x="140" y="430" width="130" height="60" as="geometry"/>
                </mxCell>
                <mxCell id="ZcKUBzm6mtghSabUe636-63" value="" style="rounded=1;whiteSpace=wrap;html=1;fillColor=#d5e8d4;strokeColor=#82b366;" vertex="1" parent="1">
                    <mxGeometry x="310" y="220" width="60" height="60" as="geometry"/>
                </mxCell>
                <mxCell id="ZcKUBzm6mtghSabUe636-64" value="+" style="text;html=1;strokeColor=none;fillColor=none;align=center;verticalAlign=middle;whiteSpace=wrap;rounded=0;fontSize=34;" vertex="1" parent="1">
                    <mxGeometry x="310" y="235" width="60" height="30" as="geometry"/>
                </mxCell>
                <mxCell id="ZcKUBzm6mtghSabUe636-65" value="7" style="text;html=1;strokeColor=none;fillColor=none;align=center;verticalAlign=middle;whiteSpace=wrap;rounded=0;fontSize=34;" vertex="1" parent="1">
                    <mxGeometry x="70" y="235" width="60" height="30" as="geometry"/>
                </mxCell>
                <mxCell id="ZcKUBzm6mtghSabUe636-66" value="8" style="text;html=1;strokeColor=none;fillColor=none;align=center;verticalAlign=middle;whiteSpace=wrap;rounded=0;fontSize=34;" vertex="1" parent="1">
                    <mxGeometry x="140" y="235" width="60" height="30" as="geometry"/>
                </mxCell>
                <mxCell id="ZcKUBzm6mtghSabUe636-67" value="9" style="text;html=1;strokeColor=none;fillColor=none;align=center;verticalAlign=middle;whiteSpace=wrap;rounded=0;fontSize=34;" vertex="1" parent="1">
                    <mxGeometry x="210" y="235" width="60" height="30" as="geometry"/>
                </mxCell>
                <mxCell id="ZcKUBzm6mtghSabUe636-68" value="4" style="text;html=1;strokeColor=none;fillColor=none;align=center;verticalAlign=middle;whiteSpace=wrap;rounded=0;fontSize=34;" vertex="1" parent="1">
                    <mxGeometry x="70" y="305" width="60" height="30" as="geometry"/>
                </mxCell>
                <mxCell id="ZcKUBzm6mtghSabUe636-69" value="5" style="text;html=1;strokeColor=none;fillColor=none;align=center;verticalAlign=middle;whiteSpace=wrap;rounded=0;fontSize=34;" vertex="1" parent="1">
                    <mxGeometry x="140" y="305" width="60" height="30" as="geometry"/>
                </mxCell>
                <mxCell id="ZcKUBzm6mtghSabUe636-70" value="6" style="text;html=1;strokeColor=none;fillColor=none;align=center;verticalAlign=middle;whiteSpace=wrap;rounded=0;fontSize=34;" vertex="1" parent="1">
                    <mxGeometry x="210" y="305" width="60" height="30" as="geometry"/>
                </mxCell>
                <mxCell id="ZcKUBzm6mtghSabUe636-71" value="1" style="text;html=1;strokeColor=#82b366;fillColor=#d5e8d4;align=center;verticalAlign=middle;whiteSpace=wrap;rounded=0;fontSize=34;" vertex="1" parent="1">
                    <mxGeometry x="70" y="375" width="60" height="30" as="geometry"/>
                </mxCell>
                <mxCell id="ZcKUBzm6mtghSabUe636-72" value="2" style="text;html=1;strokeColor=#82b366;fillColor=#d5e8d4;align=center;verticalAlign=middle;whiteSpace=wrap;rounded=0;fontSize=34;" vertex="1" parent="1">
                    <mxGeometry x="140" y="375" width="60" height="30" as="geometry"/>
                </mxCell>
                <mxCell id="ZcKUBzm6mtghSabUe636-73" value="3" style="text;html=1;strokeColor=none;fillColor=none;align=center;verticalAlign=middle;whiteSpace=wrap;rounded=0;fontSize=34;" vertex="1" parent="1">
                    <mxGeometry x="210" y="375" width="60" height="30" as="geometry"/>
                </mxCell>
                <mxCell id="ZcKUBzm6mtghSabUe636-74" value="" style="rounded=1;whiteSpace=wrap;html=1;" vertex="1" parent="1">
                    <mxGeometry x="70" y="430" width="60" height="60" as="geometry"/>
                </mxCell>
                <mxCell id="ZcKUBzm6mtghSabUe636-75" value="0" style="text;html=1;strokeColor=none;fillColor=none;align=center;verticalAlign=middle;whiteSpace=wrap;rounded=0;fontSize=34;" vertex="1" parent="1">
                    <mxGeometry x="70" y="445" width="60" height="30" as="geometry"/>
                </mxCell>
                <mxCell id="ZcKUBzm6mtghSabUe636-76" value="=" style="text;html=1;strokeColor=none;fillColor=none;align=center;verticalAlign=middle;whiteSpace=wrap;rounded=0;fontSize=34;" vertex="1" parent="1">
                    <mxGeometry x="175" y="445" width="60" height="30" as="geometry"/>
                </mxCell>
                <mxCell id="ZcKUBzm6mtghSabUe636-77" style="edgeStyle=orthogonalEdgeStyle;html=1;exitX=0.5;exitY=1;exitDx=0;exitDy=0;entryX=0.5;entryY=0;entryDx=0;entryDy=0;fontSize=15;" edge="1" parent="1" source="ZcKUBzm6mtghSabUe636-80" target="ZcKUBzm6mtghSabUe636-53">
                    <mxGeometry relative="1" as="geometry"/>
                </mxCell>
                <mxCell id="ZcKUBzm6mtghSabUe636-78" style="edgeStyle=orthogonalEdgeStyle;html=1;exitX=0.5;exitY=1;exitDx=0;exitDy=0;entryX=0.5;entryY=0;entryDx=0;entryDy=0;fontSize=15;" edge="1" parent="1" source="ZcKUBzm6mtghSabUe636-80" target="ZcKUBzm6mtghSabUe636-54">
                    <mxGeometry relative="1" as="geometry"/>
                </mxCell>
                <mxCell id="ZcKUBzm6mtghSabUe636-79" style="edgeStyle=orthogonalEdgeStyle;html=1;exitX=0.5;exitY=1;exitDx=0;exitDy=0;entryX=0.5;entryY=0;entryDx=0;entryDy=0;fontSize=15;" edge="1" parent="1" source="ZcKUBzm6mtghSabUe636-80" target="ZcKUBzm6mtghSabUe636-55">
                    <mxGeometry relative="1" as="geometry"/>
                </mxCell>
                <mxCell id="ZcKUBzm6mtghSabUe636-80" value="digits" style="text;html=1;strokeColor=none;fillColor=none;align=center;verticalAlign=middle;whiteSpace=wrap;rounded=0;fontSize=15;" vertex="1" parent="1">
                    <mxGeometry x="100" y="170" width="140" height="30" as="geometry"/>
                </mxCell>
                <mxCell id="ZcKUBzm6mtghSabUe636-81" value="" style="rounded=1;whiteSpace=wrap;html=1;" vertex="1" parent="1">
                    <mxGeometry x="310" y="290" width="60" height="60" as="geometry"/>
                </mxCell>
                <mxCell id="ZcKUBzm6mtghSabUe636-82" value="-" style="text;html=1;align=center;verticalAlign=middle;whiteSpace=wrap;rounded=0;fontSize=34;" vertex="1" parent="1">
                    <mxGeometry x="310" y="305" width="60" height="30" as="geometry"/>
                </mxCell>
                <mxCell id="ZcKUBzm6mtghSabUe636-83" value="" style="rounded=1;whiteSpace=wrap;html=1;" vertex="1" parent="1">
                    <mxGeometry x="310" y="360" width="60" height="60" as="geometry"/>
                </mxCell>
                <mxCell id="ZcKUBzm6mtghSabUe636-84" value="x" style="text;html=1;align=center;verticalAlign=middle;whiteSpace=wrap;rounded=0;fontSize=34;" vertex="1" parent="1">
                    <mxGeometry x="310" y="375" width="60" height="30" as="geometry"/>
                </mxCell>
                <mxCell id="ZcKUBzm6mtghSabUe636-85" value="" style="rounded=1;whiteSpace=wrap;html=1;" vertex="1" parent="1">
                    <mxGeometry x="310" y="430" width="60" height="60" as="geometry"/>
                </mxCell>
                <mxCell id="ZcKUBzm6mtghSabUe636-86" value="/" style="text;html=1;align=center;verticalAlign=middle;whiteSpace=wrap;rounded=0;fontSize=34;" vertex="1" parent="1">
                    <mxGeometry x="310" y="445" width="60" height="30" as="geometry"/>
                </mxCell>
                <mxCell id="ZcKUBzm6mtghSabUe636-87" style="edgeStyle=orthogonalEdgeStyle;html=1;exitX=0;exitY=0.5;exitDx=0;exitDy=0;entryX=1;entryY=0.5;entryDx=0;entryDy=0;fontSize=15;" edge="1" parent="1" source="ZcKUBzm6mtghSabUe636-91" target="ZcKUBzm6mtghSabUe636-64">
                    <mxGeometry relative="1" as="geometry"/>
                </mxCell>
                <mxCell id="ZcKUBzm6mtghSabUe636-88" style="edgeStyle=orthogonalEdgeStyle;html=1;exitX=0;exitY=0.5;exitDx=0;exitDy=0;entryX=1;entryY=0.75;entryDx=0;entryDy=0;fontSize=15;" edge="1" parent="1" source="ZcKUBzm6mtghSabUe636-91" target="ZcKUBzm6mtghSabUe636-82">
                    <mxGeometry relative="1" as="geometry"/>
                </mxCell>
                <mxCell id="ZcKUBzm6mtghSabUe636-89" style="edgeStyle=orthogonalEdgeStyle;html=1;exitX=0;exitY=0.5;exitDx=0;exitDy=0;entryX=1;entryY=0.5;entryDx=0;entryDy=0;fontSize=15;" edge="1" parent="1" source="ZcKUBzm6mtghSabUe636-91" target="ZcKUBzm6mtghSabUe636-84">
                    <mxGeometry relative="1" as="geometry"/>
                </mxCell>
                <mxCell id="ZcKUBzm6mtghSabUe636-90" style="edgeStyle=orthogonalEdgeStyle;html=1;exitX=0;exitY=0.5;exitDx=0;exitDy=0;entryX=1;entryY=0.5;entryDx=0;entryDy=0;fontSize=15;" edge="1" parent="1" source="ZcKUBzm6mtghSabUe636-91" target="ZcKUBzm6mtghSabUe636-86">
                    <mxGeometry relative="1" as="geometry"/>
                </mxCell>
                <mxCell id="ZcKUBzm6mtghSabUe636-91" value="operators" style="text;html=1;strokeColor=none;fillColor=none;align=center;verticalAlign=middle;whiteSpace=wrap;rounded=0;fontSize=15;" vertex="1" parent="1">
                    <mxGeometry x="410" y="330" width="70" height="30" as="geometry"/>
                </mxCell>
                <mxCell id="ZcKUBzm6mtghSabUe636-92" value="display" style="text;html=1;strokeColor=none;fillColor=none;align=center;verticalAlign=middle;whiteSpace=wrap;rounded=0;fontSize=15;" vertex="1" parent="1">
                    <mxGeometry x="140" y="70" width="140" height="30" as="geometry"/>
                </mxCell>
            </root>
        </mxGraphModel>
    </diagram>
</mxfile>